<svg xmlns="http://www.w3.org/2000/svg" width="15" height="16" fill="none" viewBox="0 0 15 16">
    <path fill="#000" fill-opacity="0" d="M0 0h15v15.173H0z"/>
    <path fill="#000" fill-opacity="0" d="M0 0h15v15.173H0z"/>
    <path fill="#8795A2" fill-rule="evenodd" d="M14.292 8.106A7.146 7.146 0 0 1 0 8.026 7.147 7.147 0 0 1 7.113.878v2.769a4.386 4.386 0 0 0-4.346 4.38 4.387 4.387 0 0 0 4.379 4.38 4.386 4.386 0 0 0 4.379-4.301h2.767zM7.146 0a8.503 8.503 0 0 1 2.048.309A8.083 8.083 0 0 0 7.146 0z" clip-rule="evenodd"/>
    <path fill="#18173F" d="M7.113 0C11.483.095 15 3.662 15 8.056c0 .017-.002.033-.003.05h-3.508L7.113 8.06V0z"/>
</svg>
