<svg xmlns="http://www.w3.org/2000/svg" viewBox="0 0 460 460"><defs><style>.cls-1,.cls-10,.cls-11,.cls-15,.cls-2,.cls-3,.cls-4,.cls-5,.cls-6,.cls-7,.cls-8,.cls-9{fill:none;}.cls-1,.cls-10,.cls-11,.cls-2,.cls-3,.cls-4,.cls-5,.cls-6,.cls-7,.cls-8,.cls-9{stroke:#2f74fb;stroke-linecap:round;stroke-linejoin:round;stroke-width:5px;}.cls-2{stroke-dasharray:0 9.16;}.cls-3{stroke-dasharray:0 9.13;}.cls-4{stroke-dasharray:0 10.24;}.cls-5{stroke-dasharray:0 9.93;}.cls-6{stroke-dasharray:0 9.93;}.cls-7{stroke-dasharray:0 9.93;}.cls-8{stroke-dasharray:0 9.93;}.cls-9{stroke-dasharray:0 9.93;}.cls-10{stroke-dasharray:0 9.93;}.cls-11{stroke-dasharray:0 9.93;}.cls-12{fill:#2f74fb;}.cls-13{fill:#fff;}.cls-14{fill:#6ed3f3;}</style></defs><title>dcr - symbols - not found</title><g id="Layer_2" data-name="Layer 2"><g id="Layer_1-2" data-name="Layer 1"><line class="cls-1" x1="283.56" y1="49.88" x2="283.56" y2="49.88"/><line class="cls-2" x1="292.72" y1="49.88" x2="324.79" y2="49.88"/><line class="cls-1" x1="329.37" y1="49.88" x2="329.37" y2="49.88"/><line class="cls-2" x1="329.37" y1="59.04" x2="329.37" y2="91.11"/><line class="cls-1" x1="329.37" y1="95.69" x2="329.37" y2="95.69"/><line class="cls-2" x1="320.21" y1="95.69" x2="288.14" y2="95.69"/><line class="cls-1" x1="283.56" y1="95.69" x2="283.56" y2="95.69"/><line class="cls-2" x1="283.56" y1="86.53" x2="283.56" y2="54.46"/><line class="cls-1" x1="158.26" y1="96.52" x2="158.26" y2="96.52"/><line class="cls-3" x1="162.83" y1="88.61" x2="169.68" y2="76.74"/><line class="cls-1" x1="171.97" y1="72.79" x2="171.97" y2="72.79"/><line class="cls-3" x1="167.4" y1="64.88" x2="160.55" y2="53.01"/><line class="cls-1" x1="158.26" y1="49.05" x2="158.26" y2="49.05"/><line class="cls-3" x1="149.13" y1="49.05" x2="135.43" y2="49.05"/><line class="cls-1" x1="130.86" y1="49.05" x2="130.86" y2="49.05"/><line class="cls-3" x1="126.29" y1="56.96" x2="119.44" y2="68.83"/><line class="cls-1" x1="117.16" y1="72.79" x2="117.16" y2="72.79"/><line class="cls-3" x1="121.73" y1="80.7" x2="128.58" y2="92.56"/><line class="cls-1" x1="130.86" y1="96.52" x2="130.86" y2="96.52"/><line class="cls-3" x1="140" y1="96.52" x2="153.7" y2="96.52"/><rect class="cls-4" x="198.54" y="46.71" width="52.16" height="52.16" rx="26.08"/><path class="cls-4" d="M387,46.71a26.07,26.07,0,0,1,26.08,26.08h0a26.08,26.08,0,1,1-52.15,0h0A26.07,26.07,0,0,1,387,46.71Z"/><line class="cls-1" x1="62.74" y1="46.99" x2="62.74" y2="46.99"/><line class="cls-5" x1="67.71" y1="55.59" x2="90.05" y2="94.28"/><line class="cls-1" x1="92.53" y1="98.58" x2="92.53" y2="98.58"/><line class="cls-6" x1="82.6" y1="98.58" x2="37.93" y2="98.58"/><line class="cls-1" x1="32.96" y1="98.58" x2="32.96" y2="98.58"/><line class="cls-5" x1="37.93" y1="89.98" x2="60.26" y2="51.29"/><line class="cls-1" x1="409.88" y1="124.88" x2="409.88" y2="124.88"/><line class="cls-2" x1="400.72" y1="124.88" x2="368.65" y2="124.88"/><line class="cls-1" x1="364.07" y1="124.88" x2="364.07" y2="124.88"/><line class="cls-2" x1="364.07" y1="134.04" x2="364.07" y2="166.11"/><line class="cls-1" x1="364.07" y1="170.69" x2="364.07" y2="170.69"/><line class="cls-2" x1="373.23" y1="170.69" x2="405.3" y2="170.69"/><line class="cls-1" x1="409.88" y1="170.69" x2="409.88" y2="170.69"/><line class="cls-2" x1="409.88" y1="161.53" x2="409.88" y2="129.46"/><line class="cls-1" x1="49.04" y1="171.52" x2="49.04" y2="171.52"/><line class="cls-3" x1="44.48" y1="163.61" x2="37.63" y2="151.74"/><line class="cls-1" x1="35.34" y1="147.79" x2="35.34" y2="147.79"/><line class="cls-3" x1="39.91" y1="139.88" x2="46.76" y2="128.01"/><line class="cls-1" x1="49.04" y1="124.06" x2="49.04" y2="124.06"/><line class="cls-3" x1="58.18" y1="124.06" x2="71.88" y2="124.06"/><line class="cls-1" x1="76.45" y1="124.06" x2="76.45" y2="124.06"/><line class="cls-3" x1="81.01" y1="131.97" x2="87.86" y2="143.83"/><line class="cls-1" x1="90.15" y1="147.79" x2="90.15" y2="147.79"/><line class="cls-3" x1="85.58" y1="155.7" x2="78.73" y2="167.56"/><line class="cls-1" x1="76.45" y1="171.52" x2="76.45" y2="171.52"/><line class="cls-3" x1="67.31" y1="171.52" x2="53.61" y2="171.52"/><rect class="cls-4" x="118.48" y="121.71" width="52.16" height="52.16" rx="26.08"/><rect class="cls-4" x="280.39" y="121.71" width="52.16" height="52.16" rx="26.08"/><line class="cls-1" x1="166.3" y1="199.88" x2="166.3" y2="199.88"/><line class="cls-2" x1="157.14" y1="199.88" x2="125.07" y2="199.88"/><line class="cls-1" x1="120.49" y1="199.88" x2="120.49" y2="199.88"/><line class="cls-2" x1="120.49" y1="209.04" x2="120.49" y2="241.11"/><line class="cls-1" x1="120.49" y1="245.69" x2="120.49" y2="245.69"/><line class="cls-2" x1="129.65" y1="245.69" x2="161.72" y2="245.69"/><line class="cls-1" x1="166.3" y1="245.69" x2="166.3" y2="245.69"/><line class="cls-2" x1="166.3" y1="236.53" x2="166.3" y2="204.46"/><line class="cls-1" x1="238.32" y1="246.52" x2="238.32" y2="246.52"/><line class="cls-3" x1="242.88" y1="238.61" x2="249.73" y2="226.74"/><line class="cls-1" x1="252.02" y1="222.79" x2="252.02" y2="222.79"/><line class="cls-3" x1="247.45" y1="214.88" x2="240.6" y2="203.01"/><line class="cls-1" x1="238.32" y1="199.06" x2="238.32" y2="199.06"/><line class="cls-3" x1="229.18" y1="199.06" x2="215.48" y2="199.06"/><line class="cls-1" x1="210.91" y1="199.06" x2="210.91" y2="199.06"/><line class="cls-3" x1="206.35" y1="206.97" x2="199.5" y2="218.83"/><line class="cls-1" x1="197.21" y1="222.79" x2="197.21" y2="222.79"/><line class="cls-3" x1="201.78" y1="230.7" x2="208.63" y2="242.56"/><line class="cls-1" x1="210.91" y1="246.52" x2="210.91" y2="246.52"/><line class="cls-3" x1="220.05" y1="246.52" x2="233.75" y2="246.52"/><line class="cls-1" x1="400.68" y1="246.52" x2="400.68" y2="246.52"/><line class="cls-3" x1="405.24" y1="238.61" x2="412.09" y2="226.74"/><line class="cls-1" x1="414.38" y1="222.79" x2="414.38" y2="222.79"/><line class="cls-3" x1="409.81" y1="214.88" x2="402.96" y2="203.01"/><line class="cls-1" x1="400.68" y1="199.06" x2="400.68" y2="199.06"/><line class="cls-3" x1="391.54" y1="199.06" x2="377.84" y2="199.06"/><line class="cls-1" x1="373.27" y1="199.06" x2="373.27" y2="199.06"/><line class="cls-3" x1="368.71" y1="206.97" x2="361.86" y2="218.83"/><line class="cls-1" x1="359.57" y1="222.79" x2="359.57" y2="222.79"/><line class="cls-3" x1="364.14" y1="230.7" x2="370.99" y2="242.56"/><line class="cls-1" x1="373.27" y1="246.52" x2="373.27" y2="246.52"/><line class="cls-3" x1="382.41" y1="246.52" x2="396.11" y2="246.52"/><line class="cls-1" x1="85.65" y1="274.88" x2="85.65" y2="274.88"/><line class="cls-2" x1="76.49" y1="274.88" x2="44.42" y2="274.88"/><line class="cls-1" x1="39.84" y1="274.88" x2="39.84" y2="274.88"/><line class="cls-2" x1="39.84" y1="284.04" x2="39.84" y2="316.11"/><line class="cls-1" x1="39.84" y1="320.69" x2="39.84" y2="320.69"/><line class="cls-2" x1="49" y1="320.69" x2="81.07" y2="320.69"/><line class="cls-1" x1="85.65" y1="320.69" x2="85.65" y2="320.69"/><line class="cls-2" x1="85.65" y1="311.53" x2="85.65" y2="279.46"/><line class="cls-1" x1="292.77" y1="321.52" x2="292.77" y2="321.52"/><line class="cls-3" x1="288.2" y1="313.61" x2="281.35" y2="301.74"/><line class="cls-1" x1="279.06" y1="297.79" x2="279.06" y2="297.79"/><line class="cls-3" x1="283.63" y1="289.88" x2="290.48" y2="278.01"/><line class="cls-1" x1="292.77" y1="274.06" x2="292.77" y2="274.06"/><line class="cls-3" x1="301.9" y1="274.06" x2="315.6" y2="274.06"/><line class="cls-1" x1="320.17" y1="274.06" x2="320.17" y2="274.06"/><line class="cls-3" x1="324.73" y1="281.97" x2="331.59" y2="293.83"/><line class="cls-1" x1="333.87" y1="297.79" x2="333.87" y2="297.79"/><line class="cls-3" x1="329.3" y1="305.7" x2="322.45" y2="317.56"/><line class="cls-1" x1="320.17" y1="321.52" x2="320.17" y2="321.52"/><line class="cls-3" x1="311.03" y1="321.52" x2="297.33" y2="321.52"/><path class="cls-4" d="M225.14,271.71h0a26.08,26.08,0,1,0,0,52.16h0a26.08,26.08,0,0,0,0-52.16Z"/><line class="cls-1" x1="254.4" y1="173.58" x2="254.4" y2="173.58"/><line class="cls-7" x1="244.47" y1="173.58" x2="199.8" y2="173.58"/><line class="cls-1" x1="194.83" y1="173.58" x2="194.83" y2="173.58"/><line class="cls-5" x1="199.8" y1="164.98" x2="222.13" y2="126.29"/><line class="cls-1" x1="224.62" y1="121.99" x2="224.62" y2="121.99"/><line class="cls-8" x1="229.58" y1="130.59" x2="251.92" y2="169.28"/><line class="cls-1" x1="62.74" y1="196.99" x2="62.74" y2="196.99"/><line class="cls-5" x1="67.71" y1="205.59" x2="90.05" y2="244.28"/><line class="cls-1" x1="92.53" y1="248.58" x2="92.53" y2="248.58"/><line class="cls-6" x1="82.6" y1="248.58" x2="37.93" y2="248.58"/><line class="cls-1" x1="32.96" y1="248.58" x2="32.96" y2="248.58"/><line class="cls-5" x1="37.93" y1="239.98" x2="60.26" y2="201.29"/><line class="cls-1" x1="336.25" y1="248.58" x2="336.25" y2="248.58"/><line class="cls-6" x1="326.32" y1="248.58" x2="281.65" y2="248.58"/><line class="cls-1" x1="276.68" y1="248.58" x2="276.68" y2="248.58"/><line class="cls-5" x1="281.65" y1="239.98" x2="303.98" y2="201.29"/><line class="cls-1" x1="306.47" y1="196.99" x2="306.47" y2="196.99"/><line class="cls-5" x1="311.43" y1="205.59" x2="333.77" y2="244.28"/><line class="cls-1" x1="417.43" y1="323.58" x2="417.43" y2="323.58"/><line class="cls-7" x1="407.5" y1="323.58" x2="362.82" y2="323.58"/><line class="cls-1" x1="357.86" y1="323.58" x2="357.86" y2="323.58"/><line class="cls-9" x1="362.82" y1="314.98" x2="385.16" y2="276.29"/><line class="cls-1" x1="387.64" y1="271.99" x2="387.64" y2="271.99"/><line class="cls-10" x1="392.61" y1="280.59" x2="414.94" y2="319.28"/><line class="cls-1" x1="174.35" y1="323.58" x2="174.35" y2="323.58"/><line class="cls-6" x1="164.42" y1="323.58" x2="119.74" y2="323.58"/><line class="cls-1" x1="114.78" y1="323.58" x2="114.78" y2="323.58"/><line class="cls-10" x1="119.74" y1="314.98" x2="142.08" y2="276.29"/><line class="cls-1" x1="144.56" y1="271.99" x2="144.56" y2="271.99"/><line class="cls-10" x1="149.53" y1="280.59" x2="171.86" y2="319.28"/><line class="cls-1" x1="400.68" y1="396.52" x2="400.68" y2="396.52"/><line class="cls-3" x1="405.24" y1="388.61" x2="412.09" y2="376.74"/><line class="cls-1" x1="414.38" y1="372.79" x2="414.38" y2="372.79"/><line class="cls-3" x1="409.81" y1="364.88" x2="402.96" y2="353.01"/><line class="cls-1" x1="400.68" y1="349.06" x2="400.68" y2="349.06"/><line class="cls-3" x1="391.54" y1="349.06" x2="377.84" y2="349.06"/><line class="cls-1" x1="373.27" y1="349.06" x2="373.27" y2="349.06"/><line class="cls-3" x1="368.71" y1="356.97" x2="361.86" y2="368.83"/><line class="cls-1" x1="359.57" y1="372.79" x2="359.57" y2="372.79"/><line class="cls-3" x1="364.14" y1="380.7" x2="370.99" y2="392.56"/><line class="cls-1" x1="373.27" y1="396.52" x2="373.27" y2="396.52"/><line class="cls-3" x1="382.41" y1="396.52" x2="396.11" y2="396.52"/><line class="cls-1" x1="76.45" y1="396.52" x2="76.45" y2="396.52"/><line class="cls-3" x1="81.01" y1="388.61" x2="87.86" y2="376.74"/><line class="cls-1" x1="90.15" y1="372.79" x2="90.15" y2="372.79"/><line class="cls-3" x1="85.58" y1="364.88" x2="78.73" y2="353.01"/><line class="cls-1" x1="76.45" y1="349.06" x2="76.45" y2="349.06"/><line class="cls-3" x1="67.31" y1="349.06" x2="53.61" y2="349.06"/><line class="cls-1" x1="49.04" y1="349.06" x2="49.04" y2="349.06"/><line class="cls-3" x1="44.48" y1="356.97" x2="37.63" y2="368.83"/><line class="cls-1" x1="35.34" y1="372.79" x2="35.34" y2="372.79"/><line class="cls-3" x1="39.91" y1="380.7" x2="46.76" y2="392.56"/><line class="cls-1" x1="49.04" y1="396.52" x2="49.04" y2="396.52"/><line class="cls-3" x1="58.18" y1="396.52" x2="71.88" y2="396.52"/><path class="cls-4" d="M306.47,346.71h0a26.08,26.08,0,0,1,0,52.16h0a26.08,26.08,0,0,1,0-52.16Z"/><path class="cls-4" d="M144.56,346.71h0a26.08,26.08,0,0,1,0,52.16h0a26.08,26.08,0,1,1,0-52.16Z"/><line class="cls-1" x1="225.14" y1="346.99" x2="225.14" y2="346.99"/><line class="cls-11" x1="230.11" y1="355.59" x2="252.44" y2="394.28"/><line class="cls-1" x1="254.93" y1="398.58" x2="254.93" y2="398.58"/><line class="cls-6" x1="245" y1="398.58" x2="200.32" y2="398.58"/><line class="cls-1" x1="195.36" y1="398.58" x2="195.36" y2="398.58"/><line class="cls-11" x1="200.32" y1="389.98" x2="222.66" y2="351.29"/><rect class="cls-12" x="144.36" y="261.62" width="61.6" height="20" transform="translate(-140.76 203.41) rotate(-45)"/><path class="cls-12" d="M189.86,246.3l10.61,10.61-40,40-10.61-10.6,40-40m0-7.07-47.09,47.1L160.45,304l47.09-47.09-17.68-17.68Z"/><circle class="cls-12" cx="287.07" cy="160.33" r="134.46"/><path class="cls-12" d="M287.07,28.36a132,132,0,0,1,93.31,225.28A132,132,0,1,1,193.75,67a131.11,131.11,0,0,1,93.32-38.66m0-5a137,137,0,1,0,137,137,137,137,0,0,0-137-137Z"/><circle class="cls-13" cx="287.07" cy="160.33" r="111.6"/><ellipse class="cls-14" cx="287.07" cy="172.88" rx="110.89" ry="99.04"/><polygon class="cls-1" points="348.94 116.13 331.26 98.46 287.07 142.65 242.87 98.46 225.19 116.13 269.39 160.33 225.19 204.52 242.87 222.2 287.07 178.01 331.26 222.2 348.94 204.52 304.74 160.33 348.94 116.13"/><path class="cls-14" d="M128.2,256.26l4.09-4.09a23.14,23.14,0,0,1,32.73,0l28.64,28.64a23.15,23.15,0,0,1,0,32.72l-4.1,4.1h0a68.48,68.48,0,0,0-60.3,36l-24.77,46a43,43,0,0,1-68.34,10h0a43,43,0,0,1,10-68.33l46-24.77a68.51,68.51,0,0,0,36-60.31Z"/><path class="cls-12" d="M66.51,419.79a40.17,40.17,0,0,1-28.57-11.86l-.08-.08A45.41,45.41,0,0,0,51.74,410h0a45.53,45.53,0,0,0,40.17-24l24.78-46a65.9,65.9,0,0,1,58.1-34.71,2.51,2.51,0,0,0,1.77-.73l4.09-4.09a25.48,25.48,0,0,0,7.51-18.13,27.12,27.12,0,0,0-.28-3.84l4,4a20.67,20.67,0,0,1,0,29.2l-3.37,3.36a70.9,70.9,0,0,0-61.46,37.33l-24.77,46A40.57,40.57,0,0,1,66.51,419.79Z"/><path class="cls-12" d="M190.56,284.8a18.15,18.15,0,0,1-.44,25.2l-2.66,2.66a73.37,73.37,0,0,0-62.6,38.61l-24.78,46a38.06,38.06,0,0,1-33.57,20,37.64,37.64,0,0,1-18.7-4.93c1.31.1,2.62.16,3.93.16a48.07,48.07,0,0,0,42.38-25.27l24.77-46a63.42,63.42,0,0,1,55.9-33.39,5,5,0,0,0,3.54-1.46l4.09-4.09a28,28,0,0,0,8.14-17.5M178.88,266a23.14,23.14,0,0,1,0,32.73l-4.09,4.09h0a68.51,68.51,0,0,0-60.31,36l-24.77,46A43.09,43.09,0,0,1,29.65,401.4a43.49,43.49,0,0,0,6.49,8.27h0a43,43,0,0,0,68.34-10l24.77-46a68.48,68.48,0,0,1,60.3-36h0l4.1-4.1a23.15,23.15,0,0,0,0-32.72L178.88,266Z"/><line class="cls-1" x1="189.56" y1="317.63" x2="128.2" y2="256.26"/><rect class="cls-15" width="460" height="460"/></g></g></svg>