<svg xmlns="http://www.w3.org/2000/svg" width="59" height="79" fill="none" viewBox="0 0 59 79">
    <path fill="none" d="M0 0h59v79H0z"/>
    <path fill="none" d="M0 0h59v79H0z"/>
    <path fill="#2971FF" d="M58.998 39.56H0V79h58.998V39.56z"/>
    <path fill="#69D5F7" d="M49.164 50.695H9.832v18.553h39.332V50.695z"/>
    <path fill="#2971FF" d="M44.86 44.503c0 4.097-1.619 8.027-4.5 10.924A15.315 15.315 0 0 1 29.5 59.95c-4.074 0-7.98-1.627-10.86-4.524a15.493 15.493 0 0 1-4.5-10.924"/>
    <path fill="#C4CBD2" d="M29.5 46.976a2.466 2.466 0 0 0 2.458-2.472c0-1.366-1.101-2.473-2.459-2.473a2.466 2.466 0 0 0-2.458 2.473c0 1.365 1.1 2.472 2.458 2.472z"/>
    <path fill="none" d="M0 0h59v39.56H0z"/>
    <path fill="#2971FF" d="M4.917 4.945h22.105V0H0v6.23l4.917 4.946v-6.23zM0 13.291V39.56h4.917V18.237L0 13.29zM31.978 0v4.945h22.105v6.23L59 6.23V0H31.978zM54.081 39.559h4.917V13.29l-4.917 4.945V39.56z"/>
    <path fill="#C4CBD2" d="M31.958 51.925H27.04l1.219-7.422h2.478l1.22 7.422z"/>
    <path fill="#69D5F7" d="M46.316 26.05l-3.522-3.542 11.289-11.333v-6.23H31.978V18h-4.956V4.945H4.918v6.23L16.186 22.51l-3.5 3.542-7.768-7.814v21.322h10.03a15.444 15.444 0 0 1 5.597-7.606 15.302 15.302 0 0 1 8.956-2.897c3.213 0 6.346 1.013 8.956 2.897a15.445 15.445 0 0 1 5.597 7.606h10.03V18.237l-7.768 7.813z"/>
</svg>
