<svg xmlns="http://www.w3.org/2000/svg" width="45" height="60" fill="none" viewBox="0 0 45 60">
    <path fill="none" d="M0 0h45v59.837H0z"/>
    <path fill="none" d="M0 0h45v59.837H0z"/>
    <path fill="none" d="M0 0h45v59.837H0z"/>
    <path fill="#69D5F7" d="M45 22.385H0v29.903h45V22.385z"/>
    <path fill="#2971FF" d="M0 29.934h45v29.902H0V29.934zM7.647 28.04c2.04 0 3.693-.864 3.693-1.929s-1.653-1.928-3.693-1.928-3.693.863-3.693 1.928 1.654 1.929 3.693 1.929zM37.582 28.04c2.04 0 3.693-.864 3.693-1.929s-1.654-1.928-3.693-1.928c-2.04 0-3.693.863-3.693 1.928s1.653 1.929 3.693 1.929z"/>
    <path fill="#2971FF" d="M3.954 18.66v7.517h7.418V18.66A11.23 11.23 0 0 1 22.585 7.418h.033a11.23 11.23 0 0 1 11.238 11.213v7.549h7.419v-7.517A18.675 18.675 0 0 0 22.615 0a18.675 18.675 0 0 0-18.66 18.66z"/>
    <path fill="none" d="M11.977 33.276h22.615v23.201H11.977z"/>
    <path fill="none" d="M14.853 34.843h17.32V55.14h-17.32z"/>
    <path fill="#69D5F7" d="M14.853 46.477a8.66 8.66 0 1 0 9.38-8.627v-1.47h1.438v-1.537h-4.314v1.536h1.438v1.47a8.654 8.654 0 0 0-7.942 8.628zm3.563 5.098a7.18 7.18 0 1 1 5.098 2.124 7.146 7.146 0 0 1-5.098-2.124z"/>
    <path fill="#69D5F7" d="M29.265 46.477h-5.752v-5.785a5.785 5.785 0 1 0 5.752 5.785z"/>
</svg>
