<svg xmlns="http://www.w3.org/2000/svg" width="17" height="24" fill="none" viewBox="0 0 17 24">
    <path fill="none" d="M0 0h17v23.748H0z"/>
    <path fill="none" d="M0 0h17v23.748H0z"/>
    <path fill="none" d="M0 0h17v23.748H0z"/>
    <path fill="#69D5F7" d="M3.958 23.708a4.532 4.532 0 1 1 9.064.02v.02H17V0h-3.998A4.53 4.53 0 0 1 8.47 4.532 4.54 4.54 0 0 1 3.958 0H0v23.748h3.978c-.02-.02-.02-.02-.02-.04z"/>
    <path fill="#2971FF" d="M7.481 9.281a1.187 1.187 0 1 0 0-2.374 1.187 1.187 0 0 0 0 2.374zM7.876 13.694a1.92 1.92 0 1 0 0-3.839 1.92 1.92 0 0 0 0 3.84zM11.379 14.17a1.247 1.247 0 1 0 0-2.494 1.247 1.247 0 0 0 0 2.493zM11.795 15.515a.534.534 0 1 0 0-1.069.534.534 0 0 0 0 1.069zM5.185 10.27a.534.534 0 1 0 0-1.068.534.534 0 0 0 0 1.069zM9.4 15.95a.89.89 0 1 0 0-1.781.89.89 0 0 0 0 1.781zM5.323 14.526a.653.653 0 1 0 0-1.306.653.653 0 0 0 0 1.306zM10.43 10.568a.653.653 0 1 0 0-1.306.653.653 0 0 0 0 1.306zM6.926 15.278a.594.594 0 1 0 0-1.188.594.594 0 0 0 0 1.188zM4.79 12.527a.416.416 0 1 0-.001-.831.416.416 0 0 0 0 .83zM7.718 16.861a.416.416 0 1 0 0-.83.416.416 0 0 0 0 .83zM9.994 8.153a.416.416 0 1 0 0-.83.416.416 0 0 0 0 .83z"/>
</svg>
