<svg xmlns="http://www.w3.org/2000/svg" width="77" height="73" fill="none" viewBox="0 0 77 73">
    <path fill="none" d="M0 0h77v73H0z"/>
    <path fill="none" d="M12 0h65v65H12z"/>
    <path fill="#2971FF" d="M42.55 23.236H12v4.062h30.55v-4.062z"/>
    <path fill="#69D5F7" d="M42.55 37.518v-10.22H12v14.299h30.55v-4.079z"/>
    <path fill="#2971FF" d="M77 23.236H46.613v4.062H77v-4.062z"/>
    <path fill="#69D5F7" d="M46.613 37.518v4.079H77V27.298H46.613v10.22z"/>
    <path fill="#2971FF" d="M42.55 46.634H12v4.063h30.55v-4.063z"/>
    <path fill="#69D5F7" d="M42.55 60.885V50.697H12v14.299h30.55v-4.11z"/>
    <path fill="#2971FF" d="M77 46.634H46.613v4.063H77v-4.063z"/>
    <path fill="#69D5F7" d="M46.613 60.885V65H77V50.697H46.613v10.188z"/>
    <path fill="none" d="M12 0h65v18.199H12z"/>
    <path fill="#2971FF" d="M12 0v4.062h65V0H12z"/>
    <path fill="#69D5F7" d="M12 4.062V18.2h65V4.062H12z"/>
    <path fill="none" d="M0 36.548h36.327V73H0z"/>
    <path fill="#2971FF" d="M35.052 48.034a.791.791 0 0 1-.048-.114c-.032-.097-.082-.194-.113-.291a18.203 18.203 0 0 0-5.139-6.927l-.048-.049c-.065-.048-.113-.097-.178-.146a1.138 1.138 0 0 0-.163-.13c-.017-.016-.032 0-.065-.016a18.07 18.07 0 0 0-11.15-3.812h-.016a18.1 18.1 0 0 0-8.95 2.382 18.187 18.187 0 0 0-6.617 6.503 18.279 18.279 0 0 0-.4 17.973A18.198 18.198 0 0 0 8.487 70.2a18.094 18.094 0 0 0 17.888.824 18.178 18.178 0 0 0 6.914-6.184c.017-.016.032-.048.049-.065a18.305 18.305 0 0 0 1.713-16.74l.002-.001z"/>
    <path fill="none" d="M3.867 46.791H32.43v20.074H3.867z"/>
    <path fill="#69D5F7" d="M29.573 46.79l-17.14 17.207 2.857 2.868 17.139-17.206-2.857-2.868z"/>
    <path fill="#69D5F7" d="M6.724 52.524l-2.857 2.868 11.426 11.47 2.857-2.867-11.426-11.47z"/>
</svg>
