<svg xmlns="http://www.w3.org/2000/svg" width="64" height="36" fill="none" viewBox="0 0 64 36">
    <path fill="none" d="M0 0h64v35.945H0z"/>
    <path fill="none" d="M0 0h64v35.945H0z"/>
    <path fill="none" d="M0 0h64v35.945H0z"/>
    <path fill="none" d="M0 0h64v35.945H0z"/>
    <path fill="#2971FF" d="M56.877 0H0v28.71h56.877V0z"/>
    <path fill="none" d="M7.123 7.236H64v28.71H7.123z"/>
    <path fill="#69D5F7" d="M64 7.236H7.123v28.71H64V7.235z"/>
    <path fill="none" d="M28.416 14.258h14.42v14.649h-14.42z"/>
    <path fill="#2971FF" d="M35.626 28.907c3.982 0 7.21-3.28 7.21-7.325s-3.228-7.324-7.21-7.324c-3.982 0-7.21 3.28-7.21 7.324 0 4.046 3.228 7.325 7.21 7.325z"/>
    <path fill="none" d="M49.76 17.956h7.159v7.273h-7.16z"/>
    <path fill="#2971FF" d="M53.34 25.23c1.977 0 3.58-1.629 3.58-3.637 0-2.009-1.603-3.637-3.58-3.637-1.978 0-3.58 1.628-3.58 3.637 0 2.008 1.602 3.636 3.58 3.636z"/>
    <path fill="none" d="M14.167 17.956h7.16v7.273h-7.16z"/>
    <path fill="#2971FF" d="M17.747 25.23c1.977 0 3.58-1.629 3.58-3.637 0-2.009-1.603-3.637-3.58-3.637s-3.58 1.628-3.58 3.637c0 2.008 1.603 3.636 3.58 3.636z"/>
    <path fill="none" d="M31.539 17.7h8.628v7.299h-8.628z"/>
    <path fill="none" d="M31.539 17.7h8.628v7.299h-8.628z"/>
    <path fill="none" d="M31.539 17.7h8.628v7.299h-8.628z"/>
    <path fill="#69D5F7" d="M33.333 19.518l-1.79-1.818h1.94l2.875 2.919h-1.941a1.355 1.355 0 0 0-1.008.435 1.434 1.434 0 0 0-.428 1.024 1.41 1.41 0 0 0 .428 1.023 1.41 1.41 0 0 0 1.008.435h.731l1.437 1.46h-2.168c-.377 0-.75-.075-1.1-.222a2.867 2.867 0 0 1-.932-.632 2.956 2.956 0 0 1-.841-2.065 2.524 2.524 0 0 1 .448-1.601 2.457 2.457 0 0 1 1.34-.958z"/>
    <path fill="none" d="M35.123 17.7h5.044v7.299h-5.044z"/>
    <path fill="none" d="M35.123 17.7h5.044v7.299h-5.044z"/>
    <path fill="none" d="M35.123 17.7h5.044v7.299h-5.044z"/>
    <path fill="#69D5F7" d="M38.375 23.18l1.79 1.818h-1.94L35.35 22.08h1.941a1.353 1.353 0 0 0 1.008-.435 1.434 1.434 0 0 0 .428-1.024 1.412 1.412 0 0 0-.428-1.023 1.41 1.41 0 0 0-1.008-.435h-.73L35.122 17.7h2.168a2.834 2.834 0 0 1 2.033.854 2.957 2.957 0 0 1 .841 2.065 2.592 2.592 0 0 1-.463 1.592c-.324.463-.791.804-1.327.97z"/>
</svg>
