<svg xmlns="http://www.w3.org/2000/svg" width="16" height="16" fill="none" viewBox="0 0 16 16">
    <path fill="none" d="M0 0h15.9v16H0z"/>
    <path fill="none" d="M0 0h15.9v16H0z"/>
    <path fill="#8795A2" d="M5.566 10.435l-3.379 3.378A7.274 7.274 0 0 0 7.454 16v-4.67a3.357 3.357 0 0 1-1.888-.895z"/>
    <path fill="#18173F" d="M5.565 10.434a2.715 2.715 0 0 1-.795-1.888H.1a7.275 7.275 0 0 0 2.186 5.267l3.279-3.379z"/>
    <path fill="#8795A2" d="M5.565 6.658L2.187 3.28A7.276 7.276 0 0 0 0 8.546h4.67c.09-.708.404-1.37.895-1.888z"/>
    <path fill="#18173F" d="M2.286 3.28l3.38 3.378a2.715 2.715 0 0 1 1.887-.795v-4.67A7.433 7.433 0 0 0 2.286 3.28zM10.434 5.565c.502.502.787 1.18.795 1.888h4.67a7.276 7.276 0 0 0-2.185-5.267l-3.28 3.38z"/>
    <path fill="#8795A2" d="M10.434 5.565l3.379-3.378A7.276 7.276 0 0 0 8.546 0v4.77a2.392 2.392 0 0 1 1.888.795zM10.236 8.546a2.543 2.543 0 0 1-.795 1.888l3.378 3.38a7.276 7.276 0 0 0 2.186-5.268h-4.77z"/>
    <path fill="#18173F" d="M9.44 10.435a2.714 2.714 0 0 1-1.888.795v4.67a7.274 7.274 0 0 0 5.267-2.186l-3.379-3.28z"/>
</svg>
