<svg xmlns="http://www.w3.org/2000/svg" width="89" height="78" fill="none" viewBox="0 0 89 78">
    <path fill="#000" fill-opacity="0" d="M0 0h89v78H0z"/>
    <path fill="#000" fill-opacity="0" d="M0 0h89v78H0z"/>
    <path fill="#2971FF" d="M6.271 77.978h69.607v-.044l1.957.021L89 61.27H72.32v8.243H56.796a14.83 14.83 0 0 0-5.327-4.795 14.8 14.8 0 0 0-19.225 4.795h-15.52v-8.243h-5.56L0 78l6.271-.022z"/>
    <path fill="#000" fill-opacity="0" d="M16.723 0H72.32v69.512H16.723z"/>
    <path fill="#000" fill-opacity="0" d="M16.723 0H72.32v69.512H16.723z"/>
    <path fill="#69D5F7" d="M32.245 69.512a14.831 14.831 0 0 1 5.327-4.795 14.8 14.8 0 0 1 13.898 0 14.83 14.83 0 0 1 5.327 4.795H72.32V0H59.33v.09a14.863 14.863 0 0 1-4.296 10.568 14.812 14.812 0 0 1-10.515 4.388 14.789 14.789 0 0 1-10.515-4.388A14.84 14.84 0 0 1 29.708.09V0H16.723v69.512h15.522zm12.276-47.19c3.29 0 6.506.978 9.242 2.81a16.657 16.657 0 0 1 6.127 7.478 16.693 16.693 0 0 1-3.606 18.162 16.607 16.607 0 0 1-18.128 3.613 16.643 16.643 0 0 1-7.466-6.139 16.687 16.687 0 0 1 2.07-21.042 16.622 16.622 0 0 1 11.761-4.881z"/>
    <path fill="#2971FF" d="M56.278 50.775c6.496-6.508 6.496-17.06 0-23.568-6.496-6.508-17.029-6.508-23.525 0-6.497 6.508-6.497 17.06 0 23.568 6.496 6.508 17.029 6.508 23.525 0z"/>
</svg>
