<svg xmlns="http://www.w3.org/2000/svg" width="65" height="49" fill="none" viewBox="0 0 65 49">
    <path fill="none" d="M0 0h65v49H0z"/>
    <path fill="none" d="M0 0h65v49H0z"/>
    <path fill="none" d="M0 0h65v49H0z"/>
    <path fill="none" d="M0 0h65v49H0z"/>
    <path fill="none" d="M0 0h65v49H0z"/>
    <path fill="none" d="M0 0h65v49H0z"/>
    <path fill="#69D5F7" d="M65 37.553c-3.274-.004-6.412-1.381-8.727-3.828-2.315-2.447-3.617-5.765-3.621-9.226.004-3.46 1.306-6.778 3.621-9.225S61.726 11.45 65 11.446V0H0v11.447c3.257.028 6.372 1.416 8.665 3.86 2.294 2.446 3.581 5.75 3.581 9.193 0 3.443-1.287 6.747-3.58 9.192C6.371 36.137 3.256 37.525 0 37.553V49h65V37.553z"/>
    <path fill="#2971FF" d="M32.516 9.84c2.742 0 5.423.86 7.703 2.47 2.28 1.611 4.058 3.9 5.108 6.58a15.439 15.439 0 0 1 .79 8.469c-.536 2.843-1.856 5.456-3.796 7.506-1.939 2.05-4.41 3.446-7.1 4.012-2.69.566-5.478.276-8.012-.834-2.534-1.11-4.7-2.988-6.223-5.399a15.262 15.262 0 0 1-2.338-8.144c0-1.925.358-3.832 1.055-5.61a14.736 14.736 0 0 1 3.006-4.757 13.839 13.839 0 0 1 4.5-3.178 13.216 13.216 0 0 1 5.307-1.115z"/>
</svg>
