<svg xmlns="http://www.w3.org/2000/svg" width="15" height="16" fill="none" viewBox="0 0 15 16">
    <path fill="none" d="M0 0h15.001v15.001H0z"/>
    <path fill="none" d="M0 0h15.001v15.001H0z"/>
    <path fill="none" d="M0 0h15.001v15.001H0z"/>
    <path fill="#8795A2" d="M3.1 1.424a7.61 7.61 0 0 0-.614.498s-.008.008-.011.008l-.023.022-.374.374 1.38 1.272.374-.374c.147-.134.303-.26.465-.374L3.1 1.424zM1.08 3.615l-.034.056v.156l-.007.007v.008h-.14c-.09.168-.172.341-.25.513v.083l-.022.06v.01a5.401 5.401 0 0 0-.093.25l1.766.63a5.82 5.82 0 0 1 .48-1.013l-1.7-.76zM.082 6.419c-.015.109-.03.217-.042.327a.047.047 0 0 1 0 .022v.125a7.27 7.27 0 0 0-.014 1.01l1.87-.105a5.641 5.641 0 0 1 .048-1.122l-1.87-.25.008-.007zm.16 2.98a6.94 6.94 0 0 0 .32.947l.04.097v.168a.112.112 0 0 0 .06.109l1.684-.826a5.52 5.52 0 0 1-.39-1.049l-1.714.553zm2.797 1.529L1.555 12.07c.022.03.048.06.07.09a10.385 10.385 0 0 0 .268.311l.007.008.008.007.007.007.011.012.012.01.01.012.012.011.184.2.015.015.012.01.015.016.01.011.016.015.01.011.012.011.011.012.008.007.007.008s.008.007.012.007c.052.045.1.094.153.139l1.23-1.414a5.52 5.52 0 0 1-.499-.487 4.88 4.88 0 0 1-.274-.32l.157.148zm1.692 1.465l-.923 1.632a9.281 9.281 0 0 0 .443.232h.131s.007 0 .015.007h.026l.03.012h.06c.01 0 .022.01.033.014l.038.016c.18.074.364.142.55.201l.578-1.784a3.355 3.355 0 0 1-1.005-.402l.024.072zm2.119.69l-.214 1.87c.497.056.998.063 1.496.022l-.157-1.87c-.374.031-.75.025-1.122-.019l-.003-.003zm2.23-.187l.525 1.8a7.37 7.37 0 0 0 1.389-.563l-.873-1.657c-.331.173-.679.314-1.038.42h-.002zm2.774-1.837c-.18.223-.379.431-.592.623-.067.06-.135.124-.206.175l1.19 1.451c.085-.07.171-.142.249-.216 0 0 .007 0 .007-.008.275-.25.532-.52.77-.806l-1.418-1.22zm1.042-1.976c-.106.36-.246.707-.42 1.038l1.658.873a7.25 7.25 0 0 0 .322-.693v-.011s0-.012.008-.015l.022-.056v-.125l.034-.097c.041-.116.079-.237.112-.357l-1.745-.517.009-.04zm.192-2.227c.042.372.047.748.015 1.121l1.87.161a8.369 8.369 0 0 0 .026-.877V7.19a11.095 11.095 0 0 0-.03-.35l-1.87.143-.011-.127zm-.69-2.12c.185.326.336.669.45 1.024l1.785-.577a7.908 7.908 0 0 0-.289-.748v-.132a4.538 4.538 0 0 0-.249-.465l-1.696.899zm-.322-3.178l-1.147 1.485c.27.208.52.44.748.693.022.026.049.052.071.078l1.42-1.23a.55.55 0 0 1-.04-.048l-.041-.045-.099-.096a6.678 6.678 0 0 0-.829-.75l-.083-.087zM9.402.242l-.476 1.815c.362.094.714.224 1.05.39L10.8.763a7.478 7.478 0 0 0-1.399-.52zM6.43.074l.266 1.856a5.936 5.936 0 0 1 1.122-.049l.105-1.87c-.5-.027-1-.006-1.496.064L6.43.074zM3.62 1.079l.971 1.604c.32-.195.66-.356 1.012-.48L4.975.438a9.047 9.047 0 0 0-.702.292h-.101a.223.223 0 0 0-.033.03c-.169.115-.338.209-.506.311l-.012.008z"/>
    <path fill="none" d="M0 .002h8.436v8.436H0z"/>
    <path fill="#18173F" d="M7.498.002A7.496 7.496 0 0 0 .06 8.438h1.893a5.626 5.626 0 0 1 4.612-6.481v4.611H3.749v1.87h4.687V.058a7.728 7.728 0 0 0-.938-.056z"/>
</svg>
