<svg xmlns="http://www.w3.org/2000/svg" width="104" height="20" fill="none" viewBox="0 0 104 20">
    <path fill="#2970FF" d="M4.875 4.896L0 0h5.265l7.8 7.834H7.802a3.892 3.892 0 0 0-2.758 1.148 3.926 3.926 0 0 0 0 5.54A3.892 3.892 0 0 0 7.8 15.667h1.95l3.9 3.918h-5.85a7.784 7.784 0 0 1-5.516-2.295A7.851 7.851 0 0 1 0 11.751c0-3.177 1.56-5.738 4.875-6.855z"/>
    <path fill="#2DD8A3" d="M18.526 14.69l4.875 4.896h-5.265l-7.8-7.835H15.6a3.892 3.892 0 0 0 2.757-1.147 3.926 3.926 0 0 0 0-5.54 3.892 3.892 0 0 0-2.757-1.147h-1.95L9.75 0h5.85c2.068 0 4.052.825 5.515 2.295a7.852 7.852 0 0 1 2.285 5.54c0 3.176-1.56 5.737-4.875 6.854z"/>
    <path fill="#091440" d="M56.524 13.647v-.033c0-3.473 2.655-6.196 6.25-6.196 2.423 0 3.983 1.021 5.033 2.485l-2.474 1.923c-.678-.851-1.457-1.396-2.593-1.396-1.66 0-2.83 1.417-2.83 3.15v.034c0 1.787 1.17 3.183 2.83 3.183 1.237 0 1.966-.583 2.678-1.447l2.474 1.77c-1.119 1.55-2.627 2.69-5.254 2.69-3.39 0-6.114-2.604-6.114-6.163zM69.065 7.57h5.65c1.825 0 3.09.478 3.891 1.301.7.686 1.058 1.612 1.058 2.795v.035c0 1.833-.972 3.05-2.457 3.686l2.85 4.185h-3.823l-2.406-3.637h-1.455v3.637h-3.312l.004-12.001zm5.496 5.759c1.127 0 1.775-.55 1.775-1.423v-.035c0-.942-.683-1.422-1.791-1.422h-2.172v2.88h2.188zM81.22 7.57h9.61v2.83h-6.332v1.816h5.734v2.624h-5.734v1.903h6.417v2.83H81.22V7.57zM92.65 7.57h4.608c4.267 0 6.742 2.47 6.742 5.932v.035c0 3.463-2.51 6.035-6.81 6.035h-4.54V7.571zm4.66 9.053c1.98 0 3.294-1.097 3.294-3.035v-.034c0-1.917-1.315-3.034-3.295-3.034h-1.348v6.103h1.348zM49.765 19.796c-3.508 0-6.053-2.595-6.053-6.167 0-3.531 2.474-6.195 5.755-6.195 1.758 0 3.218.658 4.22 1.902.913 1.134 1.42 2.733 1.42 4.5 0 .205-.014.394-.033.61h-8.917l.029.173c.32 1.977 1.709 3.205 3.624 3.205 1.26 0 2.247-.416 3.277-1.394l1.41 1.26c-1.223 1.415-2.773 2.106-4.732 2.106zm-.32-10.39c-1.725 0-3.014 1.306-3.283 3.325l-.023.167h6.536l-.016-.167c-.21-2.048-1.442-3.324-3.215-3.324zM35.38 19.796c-2.722 0-5.476-2.127-5.476-6.194 0-4.068 2.756-6.196 5.477-6.196 1.618 0 2.932.683 4.017 2.083l.267.346V2.076h2.481v17.496h-2.481v-2.38l-.27.383c-1.056 1.495-2.369 2.221-4.014 2.221zm.665-10.267c-2.144 0-3.64 1.675-3.64 4.073 0 2.359 1.53 4.072 3.64 4.072 2.088 0 3.663-1.75 3.663-4.072s-1.572-4.073-3.66-4.073h-.003z"/>
</svg>
