<svg xmlns="http://www.w3.org/2000/svg" width="14" height="14" fill="none" viewBox="0 0 14 14">
    <path fill="#000" fill-opacity="0" d="M-.875-.875h15.75v15.75H-.875z"/>
    <path fill="#8795A2" d="M0 8.96h14V5.04H0v3.92zm12.688-2.398a.438.438 0 1 1 0 .876.438.438 0 0 1 0-.876zm-1.75 0a.438.438 0 1 1 0 .876.438.438 0 0 1 0-.876zm-1.75 0a.437.437 0 1 1 0 .875.437.437 0 0 1 0-.875zM0 14h14V9.835H0V14zm12.688-2.625a.438.438 0 1 1 0 .876.438.438 0 0 1 0-.876zm-1.75 0a.438.438 0 1 1 0 .876.438.438 0 0 1 0-.876zm-1.75 0a.438.438 0 1 1 0 .876.438.438 0 0 1 0-.876zM0 4.165h14V0H0v4.165zM12.688 1.75a.438.438 0 1 1 0 .876.438.438 0 0 1 0-.876zm-1.75 0a.438.438 0 1 1 0 .876.438.438 0 0 1 0-.876zm-1.75 0a.437.437 0 1 1 0 .875.437.437 0 0 1 0-.875z"/>
    <path fill="#121F3C" d="M10.937 2.625a.438.438 0 1 0 0-.875.438.438 0 0 0 0 .875zM9.187 2.625a.437.437 0 1 0 0-.875.437.437 0 0 0 0 .875zM12.688 2.625a.438.438 0 1 0 0-.875.438.438 0 0 0 0 .875zM10.937 7.437a.438.438 0 1 0 0-.875.438.438 0 0 0 0 .875zM9.187 7.437a.438.438 0 1 0 0-.875.438.438 0 0 0 0 .875zM12.688 7.437a.438.438 0 1 0 0-.875.438.438 0 0 0 0 .875zM10.937 12.25a.437.437 0 1 0 0-.875.437.437 0 0 0 0 .875zM9.187 12.25a.437.437 0 1 0 0-.875.437.437 0 0 0 0 .875zM12.688 12.25a.437.437 0 1 0 0-.875.437.437 0 0 0 0 .875z"/>
</svg>
