<svg xmlns="http://www.w3.org/2000/svg" width="17" height="24" fill="none" viewBox="0 0 17 24">
    <path fill="none" d="M0 0h17v23.766H0z"/>
    <path fill="none" d="M0 0h17v23.766H0z"/>
    <path fill="#8997A5" d="M3.971 23.739a4.529 4.529 0 0 1 9.058 0v.027h3.97V0h-3.97A4.529 4.529 0 0 1 3.97 0H0v23.766H3.97v-.027z"/>
    <path fill="#132F4B" d="M8.85 8.599h-.863v3.638h.864V8.599z"/>
    <path fill="#132F4B" d="M8.854 12.428v-.864H6.06v.864h2.795z"/>
    <path fill="#132F4B" d="M8.388 7.68a4.23 4.23 0 1 1 0 8.46 4.23 4.23 0 0 1 0-8.46zm0-.87a5.1 5.1 0 1 0 0 10.2 5.1 5.1 0 0 0 0-10.2z"/>
    <path fill="none" d="M8.844 12.319h5.822v5.823H8.844z"/>
    <path fill="#8997A5" d="M11.754 17.698a2.476 2.476 0 1 1 0-4.951 2.476 2.476 0 0 1 0 4.95z"/>
    <path fill="#132F4B" d="M11.755 13.19a2.04 2.04 0 1 1-2.04 2.039 2.046 2.046 0 0 1 2.04-2.04zm0-.871a2.911 2.911 0 1 0 0 5.822 2.911 2.911 0 0 0 0-5.822z"/>
    <path fill="none" d="M11.325 13.576h.864v3.299h-.864z"/>
    <path fill="#132F4B" d="M12.189 13.576h-.864v2.047h.864v-2.047zM12.189 16.01h-.864v.864h.864v-.863z"/>
</svg>
