<svg xmlns="http://www.w3.org/2000/svg" width="17" height="24" fill="none" viewBox="0 0 17 24">
    <path fill="none" d="M0 0h17v23.766H0z"/>
    <path fill="none" d="M0 0h17v23.766H0z"/>
    <path fill="#FD704A" d="M3.971 23.739a4.529 4.529 0 0 1 9.058 0v.027h3.97V0h-3.97A4.529 4.529 0 0 1 3.97 0H0v23.766H3.97v-.027z"/>
    <path fill="none" d="M3.288 6.81h10.2v10.2h-10.2z"/>
    <path fill="none" d="M7.922 8.912h.99v4.952h-.99z"/>
    <path fill="#D43A11" d="M8.912 8.912h-.99v2.744h.99V8.912zM8.912 12.873h-.99v.99h.99v-.99z"/>
    <path fill="#D43A11" d="M8.388 7.68a4.23 4.23 0 1 1 0 8.46 4.23 4.23 0 0 1 0-8.46zm0-.87a5.1 5.1 0 1 0 0 10.2 5.1 5.1 0 0 0 0-10.2z"/>
</svg>
