<svg xmlns="http://www.w3.org/2000/svg" width="17" height="24" fill="none" viewBox="0 0 17 24">
    <path fill="none" d="M0 0h17v23.76H0z"/>
    <path fill="none" d="M0 0h17v23.76H0z"/>
    <path fill="none" d="M0 0h17v23.76H0z"/>
    <path fill="none" d="M0 0h17v23.76H0z"/>
    <path fill="#C4CBD2" d="M3.977 23.735a4.523 4.523 0 1 1 9.046 0v.025H17V0h-3.977a4.523 4.523 0 0 1-9.046 0H0v23.76h3.977v-.025z"/>
    <path fill="#8997A5" d="M4.448 13.608a.748.748 0 0 0 .745-.745v-1.418l3.194 3.194a.751.751 0 0 0 1.07 0l3.615-3.618a.746.746 0 1 0-1.056-1.056l-3.094 3.082-2.635-2.635h1.417a.745.745 0 1 0 0-1.49H4.535a.692.692 0 0 0-.594.211v.013a.75.75 0 0 0-.224.534v3.194a.726.726 0 0 0 .73.734z"/>
</svg>
