<svg xmlns="http://www.w3.org/2000/svg" width="25" height="21" fill="none" viewBox="0 0 25 21">
    <path fill="#000" fill-opacity="0" d="M0 0h25v20.995H0z"/>
    <path fill="#000" fill-opacity="0" d="M4.999 0H25v17.196H5z"/>
    <path fill="#000" fill-opacity="0" d="M4.999 0H25v17.196H5z"/>
    <path fill="#000" fill-opacity="0" d="M4.999 0H25v17.196H5z"/>
    <g opacity=".75">
        <path fill="#000" fill-opacity="0" d="M4.999 0H25v17.196H5z"/>
        <path fill="#C4CBD2" d="M6.699 2.8h15.396V1.7a1.751 1.751 0 0 0-1.7-1.7H6.7a1.72 1.72 0 0 0-1.7 1.4 1.734 1.734 0 0 0 1.7 1.4zM20.628 10.664a4.347 4.347 0 0 0 4.366 4.367V6.297a4.348 4.348 0 0 0-4.366 4.366z"/>
        <path fill="#0C1E3E" d="M23.195 2.8H6.699a1.72 1.72 0 0 1-1.7-1.4v14.096a1.752 1.752 0 0 0 1.7 1.7h16.596a1.752 1.752 0 0 0 1.7-1.7v-1.8a3.599 3.599 0 1 1 0-7.198v-1.8a1.76 1.76 0 0 0-1.8-1.899z" opacity=".75"/>
    </g>
    <circle cx="6.499" cy="14.497" r="6.499" fill="#C4CBD2"/>
    <path fill="#000" fill-opacity="0" d="M3 11.997h7.498v5.1H2.999z"/>
    <path stroke="#5C687D" stroke-miterlimit="10" d="M3 13.997l2.799 2.8M5.4 17.096l5.098-5.099"/>
</svg>
