<svg width="30" height="30" viewBox="0 0 30 30" fill="none" xmlns="http://www.w3.org/2000/svg">
<path d="M2.28047 23.8632L13.2056 5.03628C13.3885 4.72097 13.6504 4.45935 13.9652 4.27752C14.2801 4.09569 14.6369 4 15 4C15.3631 4 15.7199 4.09569 16.0348 4.27752C16.3496 4.45935 16.6115 4.72097 16.7944 5.03628L27.7195 23.8632C27.9026 24.1804 27.9993 24.5405 28 24.9072C28.0007 25.274 27.9052 25.6344 27.7233 25.9523C27.5414 26.2703 27.2794 26.5345 26.9637 26.7184C26.648 26.9023 26.2896 26.9994 25.9247 27H4.07435C3.70949 26.9992 3.35127 26.902 3.03567 26.718C2.72007 26.534 2.45821 26.2698 2.27642 25.9519C2.09462 25.634 1.99929 25.2736 2 24.907C2.00072 24.5403 2.09744 24.1803 2.28047 23.8632V23.8632Z" fill="#FD714B"/>
<path d="M28 23H2V25H28V23Z" fill="#FD714B"/>
<path d="M2.28047 21.8632L13.2056 3.03628C13.3885 2.72097 13.6504 2.45935 13.9652 2.27752C14.2801 2.09569 14.6369 2 15 2C15.3631 2 15.7199 2.09569 16.0348 2.27752C16.3496 2.45935 16.6115 2.72097 16.7944 3.03628L27.7195 21.8632C27.9026 22.1804 27.9993 22.5405 28 22.9072C28.0007 23.274 27.9052 23.6344 27.7233 23.9523C27.5414 24.2703 27.2794 24.5345 26.9637 24.7184C26.648 24.9023 26.2896 24.9994 25.9247 25H4.07435C3.70949 24.9992 3.35127 24.902 3.03567 24.718C2.72007 24.534 2.45821 24.2698 2.27642 23.9519C2.09462 23.634 1.99929 23.2736 2 22.907C2.00072 22.5403 2.09744 22.1803 2.28047 21.8632V21.8632Z" fill="#FEB8A5"/>
<path d="M18.537 11.0509L10.0518 19.5361L11.466 20.9503L19.9513 12.4651L18.537 11.0509Z" fill="#FD714B"/>
<path d="M11.4655 11.0501L10.0513 12.4644L18.5366 20.9496L19.9508 19.5354L11.4655 11.0501Z" fill="#FD714B"/>
</svg>
