<svg width="30" height="30" viewBox="0 0 30 30" fill="none" xmlns="http://www.w3.org/2000/svg">
<rect width="30" height="30" fill="white"/>
<path d="M15 28C22.1797 28 28 22.1797 28 15C28 7.8203 22.1797 2 15 2C7.8203 2 2 7.8203 2 15C2 22.1797 7.8203 28 15 28Z" fill="#41BF53"/>
<path fill-rule="evenodd" clip-rule="evenodd" d="M13.0004 18C12.0882 19.2144 10.6358 20 9 20C6.23858 20 4 17.7614 4 15C4 12.2386 6.23858 10 9 10C10.6358 10 12.0882 10.7856 13.0004 12H25L27 14.5L24 17L23 16L22 17L21 16L20 17H19H18L17 16L15.5 18H13.5H13.0004ZM9 14.5C9 15.3284 8.32843 16 7.5 16C6.67157 16 6 15.3284 6 14.5C6 13.6716 6.67157 13 7.5 13C8.32843 13 9 13.6716 9 14.5Z" fill="#C6ECCB"/>
</svg>
