<svg width="30" height="30" viewBox="0 0 30 30" fill="none" xmlns="http://www.w3.org/2000/svg">
<rect width="30" height="30" fill="white"/>
<path d="M15 28C22.1797 28 28 22.1797 28 15C28 7.8203 22.1797 2 15 2C7.8203 2 2 7.8203 2 15C2 22.1797 7.8203 28 15 28Z" fill="#FD714B"/>
<path fill-rule="evenodd" clip-rule="evenodd" d="M13.0004 18C12.0882 19.2144 10.6358 20 9 20C6.23858 20 4 17.7614 4 15C4 12.2386 6.23858 10 9 10C10.6358 10 12.0882 10.7856 13.0004 12H25L27 14.5L24 17L23 16L22 17L21 16L20 17H19H18L17 16L15.5 18H13.5H13.0004ZM9 14.5C9 15.3284 8.32843 16 7.5 16C6.67157 16 6 15.3284 6 14.5C6 13.6716 6.67157 13 7.5 13C8.32843 13 9 13.6716 9 14.5Z" fill="#FEB8A5"/>
<mask id="mask0" mask-type="alpha" maskUnits="userSpaceOnUse" x="4" y="10" width="23" height="11">
<path fill-rule="evenodd" clip-rule="evenodd" d="M13.0004 18.0002C12.0882 19.2146 10.6358 20.0002 9 20.0002C6.23858 20.0002 4 17.7616 4 15.0002C4 12.2388 6.23858 10.0002 9 10.0002C10.6358 10.0002 12.0882 10.7857 13.0004 12.0002H25L27 14.5002L24 17.0002L23 16.0002L22 17.0002L21 16.0002L20 17.0002H19H18L17 16.0002L15.5 18.0002H13.5H13.0004ZM9 14.5002C9 15.3286 8.32843 16.0002 7.5 16.0002C6.67157 16.0002 6 15.3286 6 14.5002C6 13.6718 6.67157 13.0002 7.5 13.0002C8.32843 13.0002 9 13.6718 9 14.5002Z" fill="#FEB8A5"/>
</mask>
<g mask="url(#mask0)">
</g>
<rect x="26.1118" y="1" width="2.36758" height="35.5138" transform="rotate(45 26.1118 1)" fill="#FD714B"/>
<rect x="27.2959" y="3.05035" width="2.36758" height="35.5138" transform="rotate(45 27.2959 3.05035)" fill="white"/>
</svg>
