<svg width="30" height="30" viewBox="0 0 30 30" fill="none" xmlns="http://www.w3.org/2000/svg">
<rect width="30" height="30" fill="white"/>
<path d="M19.7943 2C19.7943 3.25978 19.2892 4.46796 18.3901 5.35876C17.491 6.24956 16.2715 6.75 15 6.75C13.7285 6.75 12.509 6.24956 11.6099 5.35876C10.7108 4.46796 10.2057 3.25978 10.2057 2H6L6 27H10.2057C10.2057 25.7402 10.7108 24.532 11.6099 23.6412C12.509 22.7504 13.7285 22.25 15 22.25C16.2715 22.25 17.491 22.7504 18.3901 23.6412C19.2892 24.532 19.7943 25.7402 19.7943 27H24V2H19.7943Z" fill="#41BF53"/>
<path d="M19.1307 10.3793L12.196 17.314L14.3174 19.4353L21.252 12.5006L19.1307 10.3793Z" fill="#C6ECCB"/>
<path d="M11.6299 12.5082L9.50854 14.6295L13.2427 18.3637L15.364 16.2424L11.6299 12.5082Z" fill="#C6ECCB"/>
</svg>
