<svg width="30" height="30" viewBox="0 0 30 30" fill="none" xmlns="http://www.w3.org/2000/svg">
<path d="M19.7943 2C19.7943 3.25978 19.2892 4.46796 18.3901 5.35876C17.491 6.24956 16.2715 6.75 15 6.75C13.7285 6.75 12.509 6.24956 11.6099 5.35876C10.7108 4.46796 10.2057 3.25978 10.2057 2H6L6 27H10.2057C10.2057 25.7402 10.7108 24.532 11.6099 23.6412C12.509 22.7504 13.7285 22.25 15 22.25C16.2715 22.25 17.491 22.7504 18.3901 23.6412C19.2892 24.532 19.7943 25.7402 19.7943 27H24V2H19.7943Z" fill="#FEB8A5"/>
<path d="M18.4853 9.00004L10 17.4854L11.4142 18.8996L19.8995 10.4143L18.4853 9.00004Z" fill="#FD714B"/>
<path d="M11.4142 8.99984L10 10.4141L18.4853 18.8994L19.8995 17.4852L11.4142 8.99984Z" fill="#FD714B"/>
</svg>
