<svg width="30" height="30" viewBox="0 0 30 30" fill="none" xmlns="http://www.w3.org/2000/svg">
<rect width="30" height="30" fill="white"/>
<path d="M2 27.0049L5 22H28L25 27.0049H2Z" fill="#41BF53"/>
<path d="M11.4685 24C12.2344 22.9103 13.5307 22.1196 15.0013 22.1196C16.4719 22.1196 17.7676 22.9103 18.5335 24H23V4H19.2616C19.2616 4 19.2622 4.01801 19.2622 4.02654C19.2644 4.58842 19.1558 5.1452 18.9426 5.66493C18.7294 6.18467 18.4159 6.65713 18.02 7.05521C17.6241 7.45329 17.1536 7.76916 16.6355 7.98468C16.1174 8.20021 15.562 8.31116 15.001 8.31116C14.44 8.31116 13.8845 8.20021 13.3665 7.98468C12.8484 7.76916 12.3779 7.45329 11.982 7.05521C11.5861 6.65713 11.2726 6.18467 11.0594 5.66493C10.8462 5.1452 10.7376 4.58842 10.7398 4.02654C10.7398 4.01795 10.7404 4.00026 10.7405 4.00026H7V24H11.4685Z" fill="#C6ECCB"/>
<path d="M18.4956 11C17.1094 12.3834 15.7216 13.7651 14.3321 15.1452L12.3541 13.5007L11 15.1208L13.7256 17.3824L14.4682 18L15.1543 17.3168C16.7675 15.7064 18.3846 14.1053 20 12.4911L18.4956 11Z" fill="#41BF53"/>
</svg>
